# xmcd
#
# Track frame offsets: 
#        183
#        20550
#        39003
#        56783
#        72858
#
# Disc length: 1052 seconds
#
# Revision: 0
# Processed by: cddbd v1.5.2PL0 Copyright (c) Steve Scherf et al.
# Submitted via: ExactAudioCopy v0.99pb3
#
DISCID=3a041a05
DTITLE=Jungle Brothers - What "U" Waitin' "4"
DYEAR=1988
DGENRE=Rap
TTITLE0=What "U" Waitin' "4" - Jungle Fever Mix
TTITLE1=What "U" Waitin' "4" - LP Version
TTITLE2=What "U" Waitin' "4" - Love Ride and Orchestra Mix
TTITLE3=What "U" Waitin' "4" - Love Ride and Orchestra Instrumental
TTITLE4=What "U" Waitin' "4" - Acapella
EXTD=
EXTT0=
EXTT1=
EXTT2=
EXTT3=
EXTT4=
PLAYORDER=
